<?xml version="1.0" standalone="no"?><!DOCTYPE svg PUBLIC "-//W3C//DTD SVG 1.1//EN" "http://www.w3.org/Graphics/SVG/1.1/DTD/svg11.dtd"><svg t="1557672157581" class="icon" style="" viewBox="0 0 1024 1024" version="1.1" xmlns="http://www.w3.org/2000/svg" p-id="2376" xmlns:xlink="http://www.w3.org/1999/xlink" width="200" height="200"><defs><style type="text/css"></style></defs><path d="M512 218l-130-66-70 70 14 90 186-94z" fill="#F3AEB0" p-id="2377"></path><path d="M512 218l130-66 70 70-14 90-186-94z" fill="#8EB8BA" p-id="2378"></path><path d="M512 218l-130-66h260l-130 66z" fill="#F7E4E1" p-id="2379"></path><path d="M733.26 215l-83-83H373.72l-83 83L372 763.47V902h280V763.47zM482 782h60v10h-60z m-40-40h-32.74l-62-418.36L512 240.24l164.72 83.4L614.74 742H442z m240.9-460.06l-126.62-64.12 81.83-41.43L690.74 229zM512 195.41L465.78 172h92.44z m-126.11-19l81.83 41.43-126.62 64.1-7.84-52.94zM612 862H412v-80h30v50h140v-50h30z" fill="#272035" p-id="2380"></path><path d="M554.68 590.92l34.64-20-21.73-37.63 21-36.29H632v-40h-43.45l-21-36.29 21.73-37.63-34.64-20L533 400.71h-41.9l-21.73-37.63-34.64 20 21.73 37.63-21 36.29H392v40h43.45l21 36.29-21.73 37.63 34.64 20 21.73-37.63H533zM470.09 477l21-36.29H533L554 477l-21 36.29h-41.9z" fill="#272035" p-id="2381"></path></svg>